<svg width="98" height="64" viewBox="0 0 98 64" fill="none" xmlns="http://www.w3.org/2000/svg">
<path fill-rule="evenodd" clip-rule="evenodd" d="M32 39.2222L26.9011 41.8843C26.1671 42.2674 25.3121 41.6436 25.453 40.8277L26.4252 35.1987L22.3056 31.211C21.7086 30.6331 22.0359 29.6216 22.8582 29.5029L28.5572 28.6806L31.1046 23.5549C31.4723 22.815 32.5277 22.815 32.8954 23.5549L35.4428 28.6806L41.1418 29.5029C41.9641 29.6216 42.2914 30.6331 41.6944 31.211L37.5748 35.1987L38.547 40.8277C38.6879 41.6436 37.8329 42.2674 37.0989 41.8843L32 39.2222Z" fill="#2E2E2E"/>
<path fill-rule="evenodd" clip-rule="evenodd" d="M66 39.2222L60.9011 41.8843C60.1671 42.2674 59.3121 41.6436 59.453 40.8277L60.4252 35.1987L56.3056 31.211C55.7086 30.6331 56.0359 29.6216 56.8582 29.5029L62.5572 28.6806L65.1046 23.5549C65.4723 22.815 66.5277 22.815 66.8954 23.5549L69.4428 28.6806L75.1418 29.5029C75.9641 29.6216 76.2914 30.6331 75.6944 31.211L71.5748 35.1987L72.547 40.8277C72.6879 41.6436 71.8329 42.2674 71.0989 41.8843L66 39.2222Z" fill="#DADADA"/>
<path fill-rule="evenodd" clip-rule="evenodd" d="M66.4989 23.131C66.0306 22.8639 65.3778 23.0052 65.1046 23.5549L62.5572 28.6806L56.8582 29.5029C56.0359 29.6216 55.7086 30.6331 56.3056 31.211L60.4252 35.1987L59.453 40.8277C59.3121 41.6436 60.1671 42.2674 60.9011 41.8843L66 39.2222L66.4989 39.4827V23.131Z" fill="#FFC542"/>
<rect x="0.5" y="0.5" width="97" height="63" rx="4.5" stroke="#9747FF" stroke-dasharray="10 5"/>
</svg>
